<svg xmlns="http://www.w3.org/2000/svg" xmlns:xlink="http://www.w3.org/1999/xlink" viewBox="0,0,256,256" width="90px" height="90px" fill-rule="nonzero"><g fill="#f7eeee" fill-rule="nonzero" stroke="none" stroke-width="1" stroke-linecap="butt" stroke-linejoin="miter" stroke-miterlimit="10" stroke-dasharray="" stroke-dashoffset="0" font-family="none" font-weight="none" font-size="none" text-anchor="none" style="mix-blend-mode: normal"><g transform="scale(8,8)"><path d="M4.89453,2.00586c-0.24335,0.026 -0.47827,0.14209 -0.65039,0.33984c-0.15906,0.18347 -0.2301,0.4082 -0.23437,0.63477c-0.00067,0.0069 -0.00977,0.01245 -0.00977,0.01953v4.16992c-1.16406,0.41309 -2,1.52637 -2,2.83008c0,1.6543 1.3457,3 3,3c1.6543,0 3,-1.3457 3,-3c0,-0.55273 -0.44775,-1 -1,-1c-0.55225,0 -1,0.44727 -1,1c0,0.55176 -0.44873,1 -1,1c-0.55127,0 -1,-0.44824 -1,-1c0,-0.55176 0.44873,-1 1,-1c0.55225,0 1,-0.44727 1,-1v-2.58594l11.39453,11.39453c0.00146,-0.00195 0.00049,-0.00586 0.00195,-0.00781l2.76367,-3.68164l-14.56055,-10.91992c-0.20996,-0.15723 -0.46173,-0.21936 -0.70508,-0.19336zM22,13c-0.31506,0 -0.61175,0.14832 -0.80078,0.40039l-3,4c-0.12958,0.17273 -0.20117,0.38367 -0.20117,0.59961v3h10.00195v-2c0,-0.55231 -0.44769,-1 -1,-1h-1v-4c0,-0.55231 -0.44769,-1 -1,-1zM22,14h3v4h-5.00195c-0.41199,0 -0.64569,-0.47119 -0.39844,-0.80078zM6,15c-0.31494,0 -0.6123,0.14844 -0.80078,0.40039l-3,4c-0.12988,0.17285 -0.19922,0.38281 -0.19922,0.59961v6c0,0.55273 0.44775,1 1,1h0.05078c0.24524,-1.69165 1.69073,-3 3.44922,-3c1.75848,0 3.20398,1.30835 3.44922,3h7.10156c0.24524,-1.69165 1.69074,-3 3.44922,-3c0.97974,0 1.86401,0.40753 2.5,1.05859c0.63599,-0.65106 1.52026,-1.05859 2.5,-1.05859c1.75848,0 3.20398,1.30835 3.44922,3h0.05078c0.55225,0 1,-0.44727 1,-1v-3c0,-0.55273 -0.44775,-1 -1,-1h-18v-6c0,-0.55273 -0.44775,-1 -1,-1zM6,16h4v4h-7zM6.5,25c-1.38071,0 -2.5,1.11929 -2.5,2.5c0,1.38071 1.11929,2.5 2.5,2.5c1.38071,0 2.5,-1.11929 2.5,-2.5c0,-1.38071 -1.11929,-2.5 -2.5,-2.5zM20.5,25c-1.38071,0 -2.5,1.11929 -2.5,2.5c0,1.38071 1.11929,2.5 2.5,2.5c1.38071,0 2.5,-1.11929 2.5,-2.5c0,-1.38071 -1.11929,-2.5 -2.5,-2.5zM25.5,25c-1.38071,0 -2.5,1.11929 -2.5,2.5c0,1.38071 1.11929,2.5 2.5,2.5c1.38071,0 2.5,-1.11929 2.5,-2.5c0,-1.38071 -1.11929,-2.5 -2.5,-2.5z"></path></g></g></svg>