<svg xmlns="http://www.w3.org/2000/svg"  viewBox="0 0 64 64" width="100px" height="100px"><g data-name="27-Crane"><rect width="44" height="12" x="3" y="49" fill="#565d69" rx="6"/><path fill="#fcaa52" d="M9.99989,45h31V49h-31Z"/><path fill="#e7eaef" d="M42,55a2,2,0,0,1-2,2H40a2,2,0,0,1-2-2v0a2,2,0,0,1,2-2H40a2,2,0,0,1,2,2Z"/><path fill="#e7eaef" d="M32,55a2,2,0,0,1-2,2h0a2,2,0,0,1-2-2v0a2,2,0,0,1,2-2H30a2,2,0,0,1,2,2Z"/><path fill="#e7eaef" d="M22,55a2,2,0,0,1-4,0v0a2,2,0,0,1,2-2H20A2,2,0,0,1,22,55Z"/><path fill="#e7eaef" d="M12,55a2,2,0,0,1-2,2h0a2,2,0,1,1,2-2Z"/><path fill="#fcb860" d="M27.99994,26l-2,8H5.00005a1.99566,1.99566,0,0,0-2,2v7a1.99566,1.99566,0,0,0,2,2H46a1.97571,1.97571,0,0,0,2-2V36L44,26c-.41154-1.02874-.892-2-2-2H30A2.08894,2.08894,0,0,0,27.99994,26Z"/><path fill="#68b1fc" d="M32,28l-1.60233,6h5.60216v4l2,3H44V37l-3.7929-9Z"/><path fill="#fcb860" d="M54.99989,37H59l2,5-1,3H53.99988l-1-3Z"/><path fill="#fcb860" d="M56.99992,6a3,3,0,1,1-3-3A2.99993,2.99993,0,0,1,56.99992,6Z"/><path fill="#fcb860" d="M11.00591,24a2,2,0,1,1-2-2A2.00008,2.00008,0,0,1,11.00591,24Z"/><rect width="2.697" height="6" x="33.303" y="28" fill="#539ffb"/><path fill="#539ffb" d="M37.57159,27.99994l3.65326,8.66223a1,1,0,0,1,.074.39258v3.94519h2.70105v-4l-3.79291-9Z"/><path fill="#fcaa52" d="M58.99994,37H56.35748l1.87427,4.68219a1.0001,1.0001,0,0,1,.01514.68652L57.372,44.99994h2.628L61,42Z"/><path fill="#fcaa52" d="M53.99988,2.99994a2.9704,2.9704,0,0,0-.96137.17169A3.928,3.928,0,0,1,53.124,8.85474a2.96652,2.96652,0,0,0,.87592.1452,3,3,0,1,0,0-6Z"/><path fill="#4e5460" d="M41,49h-.41339a6.98,6.98,0,0,1-.00006,12H41a6,6,0,0,0,0-12Z"/><path d="M40.50781,27.05273h-8.207a.99915.99915,0,0,0-.96582.74219l-1.60254,6a.99942.99942,0,0,0,.96582,1.25781h4.60254v3a1.001,1.001,0,0,0,.168.55469l2,3a1.00028,1.00028,0,0,0,.832.44531h6a.99942.99942,0,0,0,1-1v-4a1.00119,1.00119,0,0,0-.07812-.38867l-3.793-9A1.001,1.001,0,0,0,40.50781,27.05273Zm-8.50781,6,1.06836-4h2.23242v4Zm11.30078,7H38.83594L37.30078,37.75V29.05273h2.543l3.457,8.20215Zm-35-2v3a1,1,0,0,1-2,0v-3a1,1,0,0,1,2,0Zm4,0v3a1,1,0,0,1-2,0v-3a1,1,0,0,1,2,0Zm4,0v3a1,1,0,0,1-2,0v-3a1,1,0,0,1,2,0Zm41,12a.99942.99942,0,0,0,1-1v-3h2a.99889.99889,0,0,0,.94824-.68359l1-3a.997.997,0,0,0-.01953-.6875l-2-5a1.00046,1.00046,0,0,0-.92871-.62891h-1v-30A3.98182,3.98182,0,0,0,51.648,3.08148L9.03662,21.08a2.99357,2.99357,0,0,0-2.73,2.97271v9H5.30078a3.00328,3.00328,0,0,0-3,3v7a3.00328,3.00328,0,0,0,3,3H8V48.0799A6.99566,6.99566,0,0,0,9,62H41a6.99566,6.99566,0,0,0,1-13.9201V46.05273h4.30078a3.04479,3.04479,0,0,0,2.17285-.916,2.87065,2.87065,0,0,0,.82715-2.084v-7a1.00685,1.00685,0,0,0-.07129-.37109l-1.85858-4.64648L55.02759,9.97925a3.94843,3.94843,0,0,0,1.27319-.48273V36.05273h-1a1.00046,1.00046,0,0,0-.92871.62891l-2,5a.997.997,0,0,0-.01953.6875l1,3a.9989.9989,0,0,0,.94824.68359h2v2.127a4,4,0,1,0,5,3.873,1,1,0,0,0-2,0,2,2,0,1,1-2-2Zm-10.288-36.62921,2.41949,3.62921h-5.6217Zm2.58783,5.62921-1.527,4.19935-3.59943-4.19935Zm-.4314-6h2.61322l-.9223,2.53638Zm-.06451-2,2.15045-2.43719a3.98606,3.98606,0,0,0,1.708,1.19025l-.45343,1.24694ZM50.35724,6.611,35.84979,23.05273h-5.549a3.05083,3.05083,0,0,0-2.98437,2.81446l-1.79688,7.18554H15.05078l-2.76654-9.22186a2.96744,2.96744,0,0,0-.66864-1.67L50.32532,5.8103c-.005.08179-.02454.15943-.02454.24243A3.94373,3.94373,0,0,0,50.35724,6.611ZM9.30664,23.05273a1,1,0,1,1-1,1A1.00068,1.00068,0,0,1,9.30664,23.05273Zm-1,3.81568a2.91582,2.91582,0,0,0,2.69684-.3457l1.959,6.53H8.30664ZM46,55a5.00588,5.00588,0,0,1-5,5H9A5,5,0,0,1,9,50H41A5.00588,5.00588,0,0,1,46,55Zm-6-7H10V46.05273H40Zm7.30078-4.918a.90474.90474,0,0,1-.26172.66113,1.03556,1.03556,0,0,1-.73828.30957h-41a.98961.98961,0,0,1-1-1v-7a.98961.98961,0,0,1,1-1h21a.99961.99961,0,0,0,.96973-.75781l2-8a.91024.91024,0,0,0,.02344-.125,1.12041,1.12041,0,0,1,1.00683-1.11719h12c.34668,0,.6084.21192,1.07129,1.3711l3.92871,9.82129ZM45.22949,25.68164c-.34179-.85352-1.05078-2.62891-2.92871-2.62891h-3.7843l3.42584-3.88256,5.34717,6.23834-1.033,2.8407ZM54.30078,8.05273a2,2,0,1,1,2-2A2.0026,2.0026,0,0,1,54.30078,8.05273ZM54.36523,42.084l1.61231-4.03125H58.624L60.23633,42.084l-.65625,1.96875h-4.5586ZM37,55a3,3,0,1,0,3-3A3.00328,3.00328,0,0,0,37,55Zm4,0a1,1,0,1,1-1-1A1.00067,1.00067,0,0,1,41,55ZM30,52a3,3,0,1,0,3,3A3.00328,3.00328,0,0,0,30,52Zm0,4a1,1,0,1,1,1-1A1.00067,1.00067,0,0,1,30,56ZM20,52a3,3,0,1,0,3,3A3.00328,3.00328,0,0,0,20,52Zm0,4a1,1,0,1,1,1-1A1.00067,1.00067,0,0,1,20,56ZM10,52a3,3,0,1,0,3,3A3.00328,3.00328,0,0,0,10,52Zm0,4a1,1,0,1,1,1-1A1.00067,1.00067,0,0,1,10,56Z"/></g></svg>